# xmcd CD database file
#
# Track frame offsets:
#	150
#	25175
#	50375
#	72350
#	88777
#	117132
#	144952
#	163530
#	179092
#	206245
#
# Disc length: 3112 seconds
#
# Revision: 0
# Processed by: cddbd v1.5.1PL0 Copyright (c) Steve Scherf et al.
# Submitted via: CDex 1.51
#
DISCID=8c0c260a
DTITLE=Leonard Blair - Mr. Saturday Night
DYEAR=1999
DGENRE=Jazz
TTITLE0=Don't Get Around Much Anymore (Ellington)
TTITLE1=Baby Won't You Please Come Home (Warfields/Williams)
TTITLE2=I've Found A New Baby (Williams/Palmer arr. by Leonard Blair)
TTITLE3=Petite Fleur (Bechet/Bonify arr. by Leonard Blair)
TTITLE4=Ain't Misbehavin' (Waller/Brooks arr. by Leonard Blair)
TTITLE5=On The Sunny Side Of The Street (McHugh/Fields arr. Leonard by Blair)
TTITLE6=Palm Court Strut (Barker)
TTITLE7=Oh Lady Be Good (Gershwin)
TTITLE8=New Orleans (Carmichael)
TTITLE9=Blues For Mr. Saturday Night (Leonard Blair)
EXTD=YEAR: 1999
EXTT0=
EXTT1=
EXTT2=
EXTT3=
EXTT4=
EXTT5=
EXTT6=
EXTT7=
EXTT8=
EXTT9=
PLAYORDER=
